<svg width="200" height="90" viewBox="0 0 506 145" fill="none" xmlns="http://www.w3.org/2000/svg">
<path d="M53.8478 8.15443C49.8788 3.39166 43.7089 0 35.5905 0C28.266 0 22.8898 2.77827 18.9209 6.92765C13.9777 12.3038 10.9829 20.6386 10.9829 31.5714V114.523C10.9829 117.878 10.9829 120.657 10.586 122.822C9.79224 128.992 8.38506 133.935 1.63781 133.935C0.663609 133.935 0.0863037 133.935 0.0863037 134.945C0.0863037 140.502 3.44189 144.471 9.39534 144.471C22.4929 144.471 26.4619 131.95 26.4619 117.482V29.5869C26.4619 21.0355 28.266 14.5048 35.9874 14.5048C38.5492 14.5048 40.1368 14.8656 41.7605 16.4532C44.3223 19.0511 45.3326 23.5973 45.3326 29.5869V140.682C45.3326 144.074 47.1006 144.471 50.2757 144.471C53.6313 144.471 61.7858 142.883 61.7858 139.708C61.7858 139.311 61.1724 138.697 60.7755 138.697V31.5714C60.7755 22.4066 62.1827 14.5048 70.3371 14.5048C78.0585 14.5048 79.6461 21.216 79.6461 29.5869V121.451C79.6461 128.775 81.0172 134.548 83.6151 138.697C86.1769 142.666 91.553 146.058 97.723 143.28C99.7075 142.306 107.429 137.507 104.073 135.161C98.6972 132.564 95.1251 127.801 95.1251 119.863V31.5714C95.1251 25.7983 94.3313 20.819 92.9602 16.8501C89.3881 7.32455 82.4244 0 69.9402 0C62.3991 0 57.2395 3.39166 53.8478 8.15443ZM130.449 119.069C139.794 116.291 147.335 110.518 152.278 103.59C156.464 97.8532 159.819 90.0956 159.819 81.1835C159.819 69.457 153.649 61.1222 141.959 61.1222C132.65 61.1222 125.686 67.4725 121.14 73.6425C115.764 81.1835 111.614 92.2605 111.614 105.178C111.614 117.878 115.98 127.584 122.331 134.151C127.851 139.924 136.222 144.471 146.722 144.471C151.484 144.471 155.85 143.893 159.639 142.666C174.288 137.904 183.02 125.419 185.221 108.353C185.618 104.781 182.839 102.183 180.061 101.425C176.092 100.415 173.891 102.977 173.097 106.368C170.752 119.25 164.366 131.373 148.923 131.373C139 131.373 133.227 126.213 130.449 119.069ZM144.34 81.3639C144.34 94.6419 137.196 103.807 128.068 108.136C128.068 106.946 127.851 105.755 127.851 104.564C127.49 95.6522 129.475 86.3432 132.65 80.3536C134.021 77.5753 136.402 74.4002 140.191 74.4002C143.33 74.4002 144.34 77.7918 144.34 81.3639ZM189.19 119.069C198.535 116.291 206.076 110.518 211.019 103.59C215.205 97.8532 218.56 90.0956 218.56 81.1835C218.56 69.457 212.39 61.1222 200.7 61.1222C191.391 61.1222 184.427 67.4725 179.881 73.6425C174.505 81.1835 170.355 92.2605 170.355 105.178C170.355 117.878 174.721 127.584 181.071 134.151C186.628 139.924 194.963 144.471 205.463 144.471C210.225 144.471 214.591 143.893 218.38 142.666C233.029 137.904 241.797 125.419 243.962 108.353C244.358 104.781 241.58 102.183 238.802 101.425C234.833 100.415 232.632 102.977 231.874 106.368C229.493 119.25 223.106 131.373 207.663 131.373C197.741 131.373 191.968 126.213 189.19 119.069ZM203.081 81.3639C203.081 94.6419 195.937 103.807 186.808 108.136C186.808 106.946 186.628 105.755 186.628 104.564C186.231 95.6522 188.216 86.3432 191.391 80.3536C192.762 77.5753 195.143 74.4002 198.932 74.4002C202.107 74.4002 203.081 77.7918 203.081 81.3639ZM241.183 144.471C246.162 144.471 246.74 140.898 246.74 135.955V106.946C247.137 102.977 247.93 99.2243 249.518 95.2553C252.296 88.2916 256.265 81.3639 261.028 76.998C263.013 75.0135 264.781 74.2198 266.188 74.2198C270.554 74.2198 270.373 80.967 270.373 85.5494V125.816C270.373 136.352 276.507 144.471 287.043 144.471C291.192 144.471 294.981 143.46 298.156 141.476C307.285 135.739 312.408 125.023 315.403 113.513C315.619 113.116 315.619 112.899 315.619 112.719V112.141C315.619 108.353 312.408 103.987 308.656 103.987C305.877 103.987 304.47 106.946 303.893 109.94C302.883 114.703 301.512 119.863 299.527 123.832C297.759 127.187 295.161 131.373 290.615 131.373C286.249 131.373 285.455 126.43 285.455 122.244V81.1835C285.455 69.6374 280.693 61.1222 268.966 61.1222C266.585 61.1222 264.42 61.5191 262.219 62.4933C254.858 65.8849 250.312 73.426 246.74 80.7866V71.8384C246.74 66.4983 241.797 63.1066 236.024 63.1066C233.642 63.1066 230.864 64.2973 230.864 66.4983C230.864 67.256 231.08 67.8694 231.261 68.6632C231.477 69.457 231.658 71.0446 231.658 72.8126V135.739C231.658 141.692 235.446 144.471 241.183 144.471ZM313.635 43.4422C320.563 43.4422 325.722 38.2825 325.722 31.3549C325.722 24.2107 320.779 19.2676 313.635 19.2676C306.671 19.2676 301.728 24.4272 301.728 31.3549C301.728 32.9425 302.125 34.7105 302.702 36.1176C304.506 40.0866 308.078 43.4422 313.635 43.4422ZM307.465 63.1066C305.084 63.1066 302.305 64.2973 302.305 66.4983C302.305 67.256 302.522 67.8694 302.702 68.6632C302.919 69.457 303.099 71.0446 303.099 72.8126V125.816C303.099 136.352 309.053 144.471 319.769 144.471C323.954 144.471 327.707 143.46 330.882 141.476C340.011 135.739 344.99 125.023 348.165 113.513C349.139 109.544 345.964 106.188 343.799 104.781C339.83 102.183 337.449 106.188 336.655 109.94C335.645 114.703 334.274 119.863 332.289 123.832C330.485 127.187 327.923 131.373 323.341 131.373C318.975 131.373 318.181 126.43 318.181 122.244V71.8384C318.181 66.4983 313.238 63.1066 307.465 63.1066ZM319.372 45.6432C318.001 45.6432 316.991 46.2566 316.594 47.6277C315.403 52.5708 319.192 58.9573 323.521 58.9573C327.923 59.1377 332.253 59.3542 337.232 59.3542V122.425C337.232 135.739 342.572 144.471 355.49 144.471C359.675 144.471 363.428 143.46 366.603 141.476C375.731 135.739 380.891 125.023 383.85 113.513C384.066 113.116 384.066 112.899 384.066 112.719V112.141C384.066 108.353 380.891 103.987 377.139 103.987C374.36 103.987 372.953 106.946 372.34 109.94C371.365 114.703 369.994 119.863 368.01 123.832C366.206 127.187 363.608 131.373 359.062 131.373C354.082 131.373 352.314 127.801 352.314 122.244V59.3542C365.412 59.3542 376.525 59.3542 390.417 58.9573C392.581 58.9573 393.772 55.9625 394.385 54.1945C395.179 51.1997 395.973 41.0969 391.788 45.6432C379.123 46.2566 365.232 46.437 352.314 46.437V11.6904C352.314 6.35036 347.371 2.99478 341.598 2.99478C339.614 2.99478 335.248 3.39167 335.248 5.15966C335.248 5.55656 335.464 5.95346 335.645 6.13387C336.835 7.75754 337.232 9.74202 337.232 12.7007V46.2566C330.882 46.0401 325.109 46.0401 319.372 45.6432ZM389.442 119.069C398.751 116.291 406.292 110.518 411.236 103.59C415.421 97.8532 418.813 90.0956 418.813 81.1835C418.813 69.457 412.643 61.1222 400.916 61.1222C391.607 61.1222 384.643 67.4725 380.097 73.6425C374.721 81.1835 370.572 92.2605 370.572 105.178C370.572 117.878 374.938 127.584 381.288 134.151C386.844 139.924 395.179 144.471 405.715 144.471C410.478 144.471 414.808 143.893 418.596 142.666C433.281 137.904 442.013 125.419 444.178 108.353C444.611 104.781 441.797 102.183 439.054 101.425C435.049 100.415 432.885 102.977 432.091 106.368C429.709 119.25 423.359 131.373 407.88 131.373C397.958 131.373 392.185 126.213 389.442 119.069ZM403.298 81.3639C403.298 94.6419 396.154 103.807 387.061 108.136C387.061 106.946 386.844 105.755 386.844 104.564C386.448 95.6522 388.432 86.3432 391.607 80.3536C392.978 77.5753 395.36 74.4002 399.148 74.4002C402.323 74.4002 403.298 77.7918 403.298 81.3639ZM441.4 77.1784C438.261 86.5236 433.859 98.0336 431.694 107.776C430.9 111.312 433.678 114.306 436.06 115.317C439.848 116.868 442.41 114.884 443.204 111.708C445.802 102.616 447.57 95.8326 450.925 87.7143C457.709 94.4615 465.25 102.399 465.25 115.714C465.25 120.657 463.049 125.239 460.848 127.801C459.296 127.801 457.312 127.584 455.327 127.007C446.992 124.842 439.451 120.079 431.874 117.085C430.503 116.507 429.529 116.291 428.916 116.291C427.725 116.291 426.751 116.868 425.74 118.059C423.539 120.657 422.746 124.626 424.153 128.992C425.343 132.744 429.132 136.533 432.885 138.914C437.467 141.692 443.601 144.471 450.745 144.471C459.08 144.471 465.61 141.295 470.193 137.326C486.069 136.136 496.785 130.579 503.135 120.26C504.326 118.275 505.914 115.317 505.914 112.502C505.914 111.708 505.733 111.131 505.3 110.157C504.326 107.956 501.945 104.564 498.769 104.564C496.172 104.564 495.197 107.379 494.223 109.94C491.625 117.265 486.466 122.641 477.914 124.229C478.528 122.244 478.925 119.683 478.925 117.085C478.925 112.322 478.347 108.353 476.94 104.781C472.358 92.8739 463.662 85.5494 457.492 74.6167C457.492 74.4002 457.889 73.8229 458.286 72.8126C459.874 69.8539 462.255 65.6684 462.255 61.1222C462.255 55.9625 460.09 52.1739 455.111 52.1739C451.322 52.1739 447.173 55.3491 444.611 57.5501C442.013 59.715 438.261 63.72 438.261 67.8694C438.261 71.8384 439.848 74.6167 441.4 77.1784Z" fill="white"/>
</svg>
