<svg data-v-6805eed4="" version="1.0" xmlns="http://www.w3.org/2000/svg" xmlns:xlink="http://www.w3.org/1999/xlink" width="100%" height="100%" viewBox="0 0 340.000000 250.000000" preserveAspectRatio="xMidYMid meet" color-interpolation-filters="sRGB" style="margin: auto;"> <rect data-v-6805eed4="" x="0" y="0" width="100%" height="100%" fill="#FFFFFF" fill-opacity="1" class="background"></rect> <rect data-v-6805eed4="" x="0" y="0" width="100%" height="100%" fill="url(#watermark)" fill-opacity="1" class="watermarklayer"></rect> <g data-v-6805eed4="" fill="#10B981" class="basesvg" transform="translate(15.791000431776048,80.95599746704102)"><g data-gra="path-name" fill-rule="" class="tp-name"><g transform="scale(2.200000000000001)"><g><path d="M15.29-36.24C14.19-37.56 12.48-38.5 10.23-38.5 8.2-38.5 6.71-37.73 5.61-36.58 4.24-35.09 3.41-32.78 3.41-29.75L3.41-6.76C3.41-5.83 3.41-5.06 3.3-4.46 3.08-2.75 2.69-1.38 0.82-1.38 0.55-1.38 0.39-1.38 0.39-1.1 0.39 0.44 1.32 1.54 2.97 1.54 6.6 1.54 7.7-1.93 7.7-5.94L7.7-30.3C7.7-32.67 8.2-34.48 10.34-34.48 11.05-34.48 11.49-34.38 11.94-33.94 12.65-33.22 12.93-31.96 12.93-30.3L12.93 0.49C12.93 1.43 13.42 1.54 14.3 1.54 15.23 1.54 17.49 1.1 17.49 0.22 17.49 0.11 17.32-0.06 17.21-0.06L17.21-29.75C17.21-32.29 17.6-34.48 19.86-34.48 22-34.48 22.44-32.62 22.44-30.3L22.44-4.84C22.44-2.81 22.82-1.21 23.54-0.06 24.25 1.04 25.74 1.98 27.45 1.21 28 0.94 30.14-0.39 29.21-1.04 27.72-1.76 26.73-3.08 26.73-5.28L26.73-29.75C26.73-31.35 26.51-32.73 26.13-33.83 25.14-36.47 23.21-38.5 19.75-38.5 17.66-38.5 16.23-37.56 15.29-36.24ZM36.52-5.5C39.11-6.27 41.2-7.87 42.57-9.79 43.73-11.38 44.66-13.53 44.66-16 44.66-19.25 42.95-21.56 39.71-21.56 37.13-21.56 35.2-19.8 33.94-18.09 32.45-16 31.3-12.93 31.3-9.35 31.3-5.83 32.51-3.14 34.27-1.32 35.8 0.28 38.12 1.54 41.03 1.54 42.35 1.54 43.56 1.38 44.61 1.04 48.67-0.28 51.09-3.74 51.7-8.47 51.81-9.46 51.04-10.18 50.27-10.39 49.17-10.67 48.56-9.96 48.34-9.02 47.69-5.45 45.92-2.09 41.64-2.09 38.89-2.09 37.29-3.52 36.52-5.5ZM40.37-15.95C40.37-12.27 38.39-9.73 35.86-8.53 35.86-8.86 35.8-9.19 35.8-9.52 35.7-11.99 36.25-14.57 37.13-16.23 37.51-17 38.17-17.88 39.22-17.88 40.09-17.88 40.37-16.94 40.37-15.95ZM52.8-5.5C55.39-6.27 57.48-7.87 58.85-9.79 60.01-11.38 60.94-13.53 60.94-16 60.94-19.25 59.23-21.56 55.99-21.56 53.41-21.56 51.48-19.8 50.22-18.09 48.73-16 47.58-12.93 47.58-9.35 47.58-5.83 48.79-3.14 50.55-1.32 52.09 0.28 54.4 1.54 57.31 1.54 58.63 1.54 59.84 1.38 60.89 1.04 64.95-0.28 67.38-3.74 67.98-8.47 68.09-9.46 67.32-10.18 66.55-10.39 65.45-10.67 64.84-9.96 64.63-9.02 63.97-5.45 62.2-2.09 57.92-2.09 55.17-2.09 53.57-3.52 52.8-5.5ZM56.65-15.95C56.65-12.27 54.67-9.73 52.14-8.53 52.14-8.86 52.09-9.19 52.09-9.52 51.98-11.99 52.53-14.57 53.41-16.23 53.79-17 54.45-17.88 55.5-17.88 56.38-17.88 56.65-16.94 56.65-15.95ZM67.21 1.54C68.59 1.54 68.75 0.55 68.75-0.82L68.75-8.86C68.86-9.96 69.08-11 69.52-12.1 70.29-14.03 71.39-15.95 72.71-17.16 73.26-17.71 73.75-17.93 74.14-17.93 75.35-17.93 75.3-16.06 75.3-14.79L75.3-3.63C75.3-0.71 77 1.54 79.92 1.54 81.07 1.54 82.12 1.26 83 0.71 85.53-0.88 86.95-3.85 87.78-7.04 87.84-7.15 87.84-7.21 87.84-7.26L87.84-7.42C87.84-8.47 86.95-9.68 85.91-9.68 85.14-9.68 84.75-8.86 84.59-8.03 84.31-6.71 83.93-5.28 83.38-4.18 82.89-3.25 82.17-2.09 80.91-2.09 79.7-2.09 79.48-3.46 79.48-4.62L79.48-16C79.48-19.2 78.16-21.56 74.91-21.56 74.25-21.56 73.65-21.45 73.04-21.18 71-20.24 69.74-18.15 68.75-16.11L68.75-18.59C68.75-20.07 67.38-21.01 65.78-21.01 65.12-21.01 64.35-20.68 64.35-20.07 64.35-19.86 64.41-19.69 64.46-19.47 64.52-19.25 64.57-18.81 64.57-18.32L64.57-0.88C64.57 0.77 65.62 1.54 67.21 1.54ZM87.29-26.46C89.21-26.46 90.64-27.89 90.64-29.81 90.64-31.79 89.27-33.16 87.29-33.16 85.36-33.16 83.99-31.73 83.99-29.81 83.99-29.37 84.1-28.88 84.26-28.49 84.76-27.39 85.75-26.46 87.29-26.46ZM85.58-21.01C84.92-21.01 84.15-20.68 84.15-20.07 84.15-19.86 84.21-19.69 84.26-19.47 84.32-19.25 84.37-18.81 84.37-18.32L84.37-3.63C84.37-0.71 86.02 1.54 88.99 1.54 90.15 1.54 91.19 1.26 92.07 0.71 94.6-0.88 95.98-3.85 96.86-7.04 97.13-8.14 96.25-9.07 95.65-9.46 94.55-10.18 93.89-9.07 93.67-8.03 93.39-6.71 93.01-5.28 92.46-4.18 91.96-3.25 91.25-2.09 89.98-2.09 88.77-2.09 88.55-3.46 88.55-4.62L88.55-18.59C88.55-20.07 87.18-21.01 85.58-21.01ZM88.88-25.85C88.5-25.85 88.22-25.68 88.11-25.3 87.78-23.93 88.83-22.16 90.03-22.16 91.25-22.11 92.45-22.05 93.83-22.05L93.83-4.57C93.83-0.88 95.31 1.54 98.89 1.54 100.05 1.54 101.09 1.26 101.97 0.71 104.5-0.88 105.93-3.85 106.75-7.04 106.81-7.15 106.81-7.21 106.81-7.26L106.81-7.42C106.81-8.47 105.93-9.68 104.89-9.68 104.12-9.68 103.73-8.86 103.56-8.03 103.29-6.71 102.91-5.28 102.36-4.18 101.86-3.25 101.14-2.09 99.88-2.09 98.5-2.09 98.01-3.08 98.01-4.62L98.01-22.05C101.64-22.05 104.72-22.05 108.57-22.16 109.17-22.16 109.5-22.99 109.67-23.48 109.89-24.31 110.11-27.11 108.95-25.85 105.44-25.68 101.59-25.63 98.01-25.63L98.01-35.26C98.01-36.74 96.64-37.67 95.04-37.67 94.49-37.67 93.28-37.56 93.28-37.07 93.28-36.96 93.34-36.85 93.39-36.8 93.72-36.35 93.83-35.8 93.83-34.98L93.83-25.68C92.07-25.74 90.47-25.74 88.88-25.85ZM108.3-5.5C110.88-6.27 112.97-7.87 114.34-9.79 115.5-11.38 116.44-13.53 116.44-16 116.44-19.25 114.73-21.56 111.48-21.56 108.9-21.56 106.97-19.8 105.71-18.09 104.22-16 103.07-12.93 103.07-9.35 103.07-5.83 104.28-3.14 106.04-1.32 107.58 0.28 109.89 1.54 112.81 1.54 114.13 1.54 115.33 1.38 116.38 1.04 120.45-0.28 122.87-3.74 123.47-8.47 123.59-9.46 122.81-10.18 122.05-10.39 120.94-10.67 120.34-9.96 120.12-9.02 119.46-5.45 117.7-2.09 113.41-2.09 110.66-2.09 109.06-3.52 108.3-5.5ZM112.14-15.95C112.14-12.27 110.16-9.73 107.64-8.53 107.64-8.86 107.58-9.19 107.58-9.52 107.47-11.99 108.02-14.57 108.9-16.23 109.28-17 109.94-17.88 110.99-17.88 111.87-17.88 112.14-16.94 112.14-15.95ZM122.7-17.11C121.83-14.52 120.61-11.33 120.01-8.63 119.79-7.65 120.56-6.82 121.22-6.54 122.27-6.11 122.98-6.66 123.2-7.54 123.92-10.06 124.41-11.94 125.34-14.19 127.22-12.32 129.31-10.12 129.31-6.43 129.31-5.06 128.7-3.79 128.09-3.08 127.66-3.08 127.11-3.14 126.56-3.3 124.25-3.9 122.16-5.22 120.06-6.05 119.68-6.21 119.41-6.27 119.24-6.27 118.91-6.27 118.64-6.11 118.36-5.78 117.75-5.06 117.53-3.96 117.92-2.75 118.25-1.71 119.3-0.66 120.34 0 121.61 0.77 123.31 1.54 125.29 1.54 127.6 1.54 129.41 0.66 130.68-0.44 135.08-0.77 138.05-2.31 139.81-5.17 140.14-5.72 140.58-6.54 140.58-7.32 140.58-7.54 140.53-7.7 140.41-7.97 140.14-8.58 139.48-9.52 138.6-9.52 137.88-9.52 137.61-8.74 137.34-8.03 136.62-6 135.19-4.51 132.82-4.07 132.99-4.62 133.1-5.33 133.1-6.05 133.1-7.37 132.94-8.47 132.55-9.46 131.28-12.76 128.87-14.79 127.16-17.82 127.16-17.88 127.27-18.04 127.38-18.32 127.82-19.14 128.48-20.3 128.48-21.56 128.48-22.99 127.88-24.04 126.5-24.04 125.45-24.04 124.3-23.16 123.59-22.55 122.87-21.95 121.83-20.84 121.83-19.69 121.83-18.59 122.27-17.82 122.7-17.11Z" transform="translate(-0.39000001549720764, 38.5)"></path></g> <!----> <!----> <!----> <!----> <!----> <!----> <!----></g></g> <!----></g><defs v-gra="od"></defs></svg>