<svg width="309" height="89" viewBox="0 0 309 89" fill="none" xmlns="http://www.w3.org/2000/svg">
<path d="M32.78 4.972C30.36 2.068 26.598 0 21.648 0C17.182 0 13.904 1.694 11.484 4.224C8.47 7.502 6.644 12.584 6.644 19.25V69.828C6.644 71.874 6.644 73.568 6.402 74.888C5.918 78.65 5.06 81.664 0.946 81.664C0.352 81.664 0 81.664 0 82.28C0 85.668 2.046 88.088 5.676 88.088C13.662 88.088 16.082 80.454 16.082 71.632V18.04C16.082 12.826 17.182 8.844 21.89 8.844C23.452 8.844 24.42 9.064 25.41 10.032C26.972 11.616 27.588 14.388 27.588 18.04V85.778C27.588 87.846 28.666 88.088 30.602 88.088C32.648 88.088 37.62 87.12 37.62 85.184C37.62 84.942 37.246 84.568 37.004 84.568V19.25C37.004 13.662 37.862 8.844 42.834 8.844C47.542 8.844 48.51 12.936 48.51 18.04V74.052C48.51 78.518 49.346 82.038 50.93 84.568C52.492 86.988 55.77 89.056 59.532 87.362C60.742 86.768 65.45 83.842 63.404 82.412C60.126 80.828 57.948 77.924 57.948 73.084V19.25C57.948 15.73 57.464 12.694 56.628 10.274C54.45 4.466 50.204 0 42.592 0C37.994 0 34.848 2.068 32.78 4.972ZM79.486 72.6C85.184 70.906 89.782 67.386 92.796 63.162C95.348 59.664 97.394 54.934 97.394 49.5C97.394 42.35 93.632 37.268 86.504 37.268C80.828 37.268 76.582 41.14 73.81 44.902C70.532 49.5 68.002 56.254 68.002 64.13C68.002 71.874 70.664 77.792 74.536 81.796C77.902 85.316 83.006 88.088 89.408 88.088C92.312 88.088 94.974 87.736 97.284 86.988C106.216 84.084 111.54 76.472 112.882 66.066C113.124 63.888 111.43 62.304 109.736 61.842C107.316 61.226 105.974 62.788 105.49 64.856C104.06 72.71 100.166 80.102 90.75 80.102C84.7 80.102 81.18 76.956 79.486 72.6ZM87.956 49.61C87.956 57.706 83.6 63.294 78.034 65.934C78.034 65.208 77.902 64.482 77.902 63.756C77.682 58.322 78.892 52.646 80.828 48.994C81.664 47.3 83.116 45.364 85.426 45.364C87.34 45.364 87.956 47.432 87.956 49.61ZM115.302 72.6C121 70.906 125.598 67.386 128.612 63.162C131.164 59.664 133.21 54.934 133.21 49.5C133.21 42.35 129.448 37.268 122.32 37.268C116.644 37.268 112.398 41.14 109.626 44.902C106.348 49.5 103.818 56.254 103.818 64.13C103.818 71.874 106.48 77.792 110.352 81.796C113.74 85.316 118.822 88.088 125.224 88.088C128.128 88.088 130.79 87.736 133.1 86.988C142.032 84.084 147.378 76.472 148.698 66.066C148.94 63.888 147.246 62.304 145.552 61.842C143.132 61.226 141.79 62.788 141.328 64.856C139.876 72.71 135.982 80.102 126.566 80.102C120.516 80.102 116.996 76.956 115.302 72.6ZM123.772 49.61C123.772 57.706 119.416 63.294 113.85 65.934C113.85 65.208 113.74 64.482 113.74 63.756C113.498 58.322 114.708 52.646 116.644 48.994C117.48 47.3 118.932 45.364 121.242 45.364C123.178 45.364 123.772 47.432 123.772 49.61ZM147.004 88.088C150.04 88.088 150.392 85.91 150.392 82.896V65.208C150.634 62.788 151.118 60.5 152.086 58.08C153.78 53.834 156.2 49.61 159.104 46.948C160.314 45.738 161.392 45.254 162.25 45.254C164.912 45.254 164.802 49.368 164.802 52.162V76.714C164.802 83.138 168.542 88.088 174.966 88.088C177.496 88.088 179.806 87.472 181.742 86.262C187.308 82.764 190.432 76.23 192.258 69.212C192.39 68.97 192.39 68.838 192.39 68.728V68.376C192.39 66.066 190.432 63.404 188.144 63.404C186.45 63.404 185.592 65.208 185.24 67.034C184.624 69.938 183.788 73.084 182.578 75.504C181.5 77.55 179.916 80.102 177.144 80.102C174.482 80.102 173.998 77.088 173.998 74.536V49.5C173.998 42.46 171.094 37.268 163.944 37.268C162.492 37.268 161.172 37.51 159.83 38.104C155.342 40.172 152.57 44.77 150.392 49.258V43.802C150.392 40.546 147.378 38.478 143.858 38.478C142.406 38.478 140.712 39.204 140.712 40.546C140.712 41.008 140.844 41.382 140.954 41.866C141.086 42.35 141.196 43.318 141.196 44.396V82.764C141.196 86.394 143.506 88.088 147.004 88.088ZM191.18 26.488C195.404 26.488 198.55 23.342 198.55 19.118C198.55 14.762 195.536 11.748 191.18 11.748C186.934 11.748 183.92 14.894 183.92 19.118C183.92 20.086 184.162 21.164 184.514 22.022C185.614 24.442 187.792 26.488 191.18 26.488ZM187.418 38.478C185.966 38.478 184.272 39.204 184.272 40.546C184.272 41.008 184.404 41.382 184.514 41.866C184.646 42.35 184.756 43.318 184.756 44.396V76.714C184.756 83.138 188.386 88.088 194.92 88.088C197.472 88.088 199.76 87.472 201.696 86.262C207.262 82.764 210.298 76.23 212.234 69.212C212.828 66.792 210.892 64.746 209.572 63.888C207.152 62.304 205.7 64.746 205.216 67.034C204.6 69.938 203.764 73.084 202.554 75.504C201.454 77.55 199.892 80.102 197.098 80.102C194.436 80.102 193.952 77.088 193.952 74.536V43.802C193.952 40.546 190.938 38.478 187.418 38.478ZM194.678 27.83C193.842 27.83 193.226 28.204 192.984 29.04C192.258 32.054 194.568 35.948 197.208 35.948C199.892 36.058 202.532 36.19 205.568 36.19V74.646C205.568 82.764 208.824 88.088 216.7 88.088C219.252 88.088 221.54 87.472 223.476 86.262C229.042 82.764 232.188 76.23 233.992 69.212C234.124 68.97 234.124 68.838 234.124 68.728V68.376C234.124 66.066 232.188 63.404 229.9 63.404C228.206 63.404 227.348 65.208 226.974 67.034C226.38 69.938 225.544 73.084 224.334 75.504C223.234 77.55 221.65 80.102 218.878 80.102C215.842 80.102 214.764 77.924 214.764 74.536V36.19C222.75 36.19 229.526 36.19 237.996 35.948C239.316 35.948 240.042 34.122 240.416 33.044C240.9 31.218 241.384 25.058 238.832 27.83C231.11 28.204 222.64 28.314 214.764 28.314V7.128C214.764 3.872 211.75 1.826 208.23 1.826C207.02 1.826 204.358 2.068 204.358 3.146C204.358 3.388 204.49 3.63 204.6 3.74C205.326 4.73 205.568 5.94 205.568 7.744V28.204C201.696 28.072 198.176 28.072 194.678 27.83ZM237.402 72.6C243.078 70.906 247.676 67.386 250.69 63.162C253.242 59.664 255.31 54.934 255.31 49.5C255.31 42.35 251.548 37.268 244.398 37.268C238.722 37.268 234.476 41.14 231.704 44.902C228.426 49.5 225.896 56.254 225.896 64.13C225.896 71.874 228.558 77.792 232.43 81.796C235.818 85.316 240.9 88.088 247.324 88.088C250.228 88.088 252.868 87.736 255.178 86.988C264.132 84.084 269.456 76.472 270.776 66.066C271.04 63.888 269.324 62.304 267.652 61.842C265.21 61.226 263.89 62.788 263.406 64.856C261.954 72.71 258.082 80.102 248.644 80.102C242.594 80.102 239.074 76.956 237.402 72.6ZM245.85 49.61C245.85 57.706 241.494 63.294 235.95 65.934C235.95 65.208 235.818 64.482 235.818 63.756C235.576 58.322 236.786 52.646 238.722 48.994C239.558 47.3 241.01 45.364 243.32 45.364C245.256 45.364 245.85 47.432 245.85 49.61ZM269.082 47.058C267.168 52.756 264.484 59.774 263.164 65.714C262.68 67.87 264.374 69.696 265.826 70.312C268.136 71.258 269.698 70.048 270.182 68.112C271.766 62.568 272.844 58.432 274.89 53.482C279.026 57.596 283.624 62.436 283.624 70.554C283.624 73.568 282.282 76.362 280.94 77.924C279.994 77.924 278.784 77.792 277.574 77.44C272.492 76.12 267.894 73.216 263.274 71.39C262.438 71.038 261.844 70.906 261.47 70.906C260.744 70.906 260.15 71.258 259.534 71.984C258.192 73.568 257.708 75.988 258.566 78.65C259.292 80.938 261.602 83.248 263.89 84.7C266.684 86.394 270.424 88.088 274.78 88.088C279.862 88.088 283.844 86.152 286.638 83.732C296.318 83.006 302.852 79.618 306.724 73.326C307.45 72.116 308.418 70.312 308.418 68.596C308.418 68.112 308.308 67.76 308.044 67.166C307.45 65.824 305.998 63.756 304.062 63.756C302.478 63.756 301.884 65.472 301.29 67.034C299.706 71.5 296.56 74.778 291.346 75.746C291.72 74.536 291.962 72.974 291.962 71.39C291.962 68.486 291.61 66.066 290.752 63.888C287.958 56.628 282.656 52.162 278.894 45.496C278.894 45.364 279.136 45.012 279.378 44.396C280.346 42.592 281.798 40.04 281.798 37.268C281.798 34.122 280.478 31.812 277.442 31.812C275.132 31.812 272.602 33.748 271.04 35.09C269.456 36.41 267.168 38.852 267.168 41.382C267.168 43.802 268.136 45.496 269.082 47.058Z" fill="#10B981"/>
</svg>
